<?xml version="1.0" encoding="utf-8"?>
<!-- Generator: Adobe Illustrator 26.0.1, SVG Export Plug-In . SVG Version: 6.00 Build 0)  -->
<svg version="1.1" id="Layer_1" xmlns="http://www.w3.org/2000/svg" xmlns:xlink="http://www.w3.org/1999/xlink" x="0px" y="0px"
	 viewBox="0 0 180 90" style="enable-background:new 0 0 180 90;" xml:space="preserve">
<style type="text/css">
	.st0{fill:#F8AA3D;}
	.st1{fill:#324C7E;}
	.st2{fill:#324C7E;stroke:#324C7E;stroke-width:0.75;stroke-miterlimit:10;}
	.st3{fill:#FFFFFF;}
</style>
<g>
	<path class="st0" d="M79.71,21.89c-0.26-1.94-2-3.23-3.89-3.27c-3.25-0.07-6.5,0-9.75,0H51.55c-0.98,0-2-0.09-2.98,0.03
		c-1.5,0.17-3.3,1.04-4.02,2.43c-0.15,0.29-0.28,0.59-0.43,0.88c-1.89,3.91-3.78,7.82-5.67,11.73c-1.28,2.65-2.56,5.3-3.84,7.95
		c0-0.5,0-1-0.01-1.5c-0.01-3.53,0.02-7.05,0.04-10.58c0.02-2.19,0.08-4.38,0.06-6.57c-0.02-2.15-1.86-3.7-3.94-3.74
		c-1.12-0.02-2.25,0-3.37,0h-5.13c-1.53,0-3.04-0.03-4.23,1.16c-0.49,0.49-0.84,1.13-1,1.8c-0.31,1.34,1.75,1.91,2.06,0.57
		c0.2-0.86,0.91-1.37,1.79-1.39c0.34-0.01,0.68,0,1.02,0h4.77c1.3,0,2.6,0,3.9,0c1,0,1.98,0.54,1.99,1.62
		c0.05,5.46-0.1,10.92-0.1,16.38c0,2.13-0.12,4.33,0.1,6.46c0.08,0.8,0.74,1.62,1.65,1.09c0.25-0.15,0.36-0.34,0.48-0.57
		c0.33-0.64,0.62-1.29,0.94-1.94c2.76-5.71,5.52-11.42,8.28-17.13c0.82-1.69,1.61-3.4,2.46-5.08c0.42-0.83,1.73-1.44,2.64-1.46
		c0.6-0.01,1.21,0,1.81,0H69.6c2.02,0,4.03-0.01,6.05,0c1.09,0,2.11,0.7,1.96,1.83c-0.04,0.27-0.11,0.55-0.17,0.82
		c-0.95,4.67-1.9,9.34-2.86,14.01c-0.24,1.2-0.49,2.39-0.73,3.59c0.77,0.51,1.36,1.2,1.77,2l0.94-4.63l2.47-12.12
		c0.19-0.95,0.39-1.89,0.58-2.84C79.71,22.91,79.78,22.41,79.71,21.89z"/>
	<path class="st0" d="M32.82,45.31c0,0.01-0.01,0.01-0.01,0.02C32.73,45.54,32.7,45.45,32.82,45.31z"/>
	<path class="st0" d="M70.78,56.03c-0.11,0.52-0.21,1.04-0.32,1.56c-0.82,4.02-1.62,8.04-2.46,12.05c-0.19,0.93-0.81,1.57-1.82,1.59
		c-1.37,0.03-1.38,2.17,0,2.14c1.79-0.04,3.43-1.18,3.84-2.97c0.04-0.19,0.08-0.37,0.11-0.56c0.22-1.1,0.45-2.19,0.67-3.29
		c0.75-3.66,1.49-7.33,2.24-10.99C72.4,55.85,71.64,56.02,70.78,56.03z"/>
</g>
<path class="st1" d="M31.93,77.85h-5.94c-1.13,0-2.05-0.89-2.1-2.02l-0.87-22.12c-0.1-2.52-3.74-2.76-4.17-0.28l-3.92,22.67
	c-0.17,1.01-1.05,1.74-2.07,1.74H8.28c-1.32,0-2.31-1.2-2.06-2.49l9.2-48.42c0.19-0.99,1.05-1.71,2.06-1.71h9.09
	c1.1,0,2.02,0.85,2.09,1.96l1.85,26.95c0.15,2.19,3.13,2.71,4.01,0.7l12.5-28.36c0.34-0.76,1.09-1.25,1.92-1.25h22.84
	c1.32,0,2.31,1.2,2.06,2.49l-9.23,48.42c-0.19,0.99-1.05,1.71-2.06,1.71H45.38c-1.34,0-2.33-1.23-2.05-2.54l4.37-20.22
	c0.54-2.48-2.97-3.61-3.98-1.28l-9.87,22.78C33.52,77.35,32.77,77.85,31.93,77.85z"/>
<path class="st2" d="M113.99,35.49"/>
<circle class="st3" cx="23.25" cy="29.93" r="3.1"/>
<circle class="st3" cx="51.43" cy="30.75" r="3.1"/>
<g>
	<path class="st1" d="M24.31,30.06c0.03-7.26,3.67-15.2,10.4-18.55c1.33-0.66,2.87-1.11,4.31-1.18c0.75-0.04,1.46,0,2.08,0.12
		c0.73,0.15,1.33,0.35,1.9,0.65c2.59,1.33,4.25,4.01,5.3,6.79c1.56,4.15,2.05,8.66,2.06,13.07c0,1.37,2.14,1.38,2.14,0
		c-0.01-4.28-0.46-8.67-1.82-12.76c-1.1-3.29-2.86-6.59-5.85-8.52c-2.9-1.87-6.59-1.87-9.73-0.66c-3.61,1.39-6.56,4.08-8.71,7.25
		c-2.75,4.03-4.18,8.92-4.2,13.79C22.17,31.43,24.31,31.43,24.31,30.06L24.31,30.06z"/>
</g>
<g>
	<path class="st3" d="M71.06,53.28H54.99c-1.85,0-3.35-1.5-3.35-3.35v-4.07c0-1.85,1.5-3.35,3.35-3.35h16.08
		c1.85,0,3.35,1.5,3.35,3.35v4.07C74.42,51.78,72.92,53.28,71.06,53.28z"/>
	<path class="st1" d="M70.74,53.92H55.31c-2.38,0-4.31-1.94-4.31-4.31v-3.43c0-2.38,1.94-4.31,4.31-4.31h15.44
		c2.38,0,4.31,1.94,4.31,4.31v3.43C75.06,51.99,73.12,53.92,70.74,53.92z M55.31,43.14c-1.67,0-3.03,1.36-3.03,3.03v3.43
		c0,1.67,1.36,3.03,3.03,3.03h15.44c1.67,0,3.03-1.36,3.03-3.03v-3.43c0-1.67-1.36-3.03-3.03-3.03H55.31z"/>
</g>
<circle class="st0" cx="57.55" cy="48.13" r="2.85"/>
<g>
	<path class="st1" d="M92.1,40.55h-0.97c-0.67,0-1.23-0.53-1.25-1.2l-0.22-5.67c-0.04-0.92-1.36-1-1.51-0.1l-1.03,5.94
		c-0.1,0.6-0.63,1.04-1.23,1.04H85.6c-0.79,0-1.38-0.71-1.23-1.49l2.73-14.35c0.11-0.59,0.63-1.02,1.23-1.02h2.26
		c0.67,0,1.23,0.53,1.25,1.2l0.21,5.22c0.05,1.33,1.86,1.67,2.4,0.46l2.72-6.14c0.2-0.45,0.65-0.75,1.15-0.75h2.22
		c0.79,0,1.38,0.72,1.23,1.49l-2.74,14.35c-0.11,0.59-0.63,1.02-1.23,1.02h-0.29c-0.8,0-1.39-0.74-1.22-1.52l1.15-5.32
		c0.18-0.85-1.02-1.23-1.36-0.44l-2.83,6.52C93.05,40.25,92.6,40.55,92.1,40.55z"/>
	<path class="st1" d="M110.91,36.82h-4.21c-0.48,0-0.91,0.27-1.12,0.7l-1.15,2.33c-0.21,0.43-0.65,0.7-1.12,0.7h-0.41
		c-0.94,0-1.54-0.99-1.11-1.83l7.39-14.35c0.21-0.42,0.64-0.68,1.11-0.68h1.66c0.62,0,1.15,0.46,1.24,1.07l2.12,14.35
		c0.11,0.76-0.47,1.44-1.24,1.44h-0.45c-0.63,0-1.16-0.46-1.24-1.08l-0.22-1.56C112.06,37.29,111.53,36.82,110.91,36.82z
		 M111.43,32.6l-0.2-1.56c-0.16-1.2-1.76-1.5-2.34-0.44l-0.85,1.56c-0.46,0.84,0.15,1.85,1.1,1.85h1.05
		C110.94,34.02,111.52,33.35,111.43,32.6z"/>
	<path class="st1" d="M119.16,35.02l0.56-0.03c0.62-0.04,1.19,0.39,1.3,1.01c0.08,0.48,0.21,0.83,0.39,1.05
		c0.46,0.6,1.31,0.9,2.55,0.9c1.03,0,1.78-0.2,2.24-0.61c0.46-0.41,0.69-0.9,0.69-1.47c0-0.5-0.19-0.92-0.56-1.26
		c-0.27-0.25-0.99-0.66-2.18-1.23c-1.19-0.57-2.06-1.04-2.61-1.42c-0.55-0.38-0.98-0.87-1.29-1.48s-0.47-1.32-0.47-2.13
		c0-1.42,0.47-2.6,1.4-3.53c0.93-0.94,2.29-1.4,4.06-1.4c1.8,0,3.19,0.46,4.18,1.39c0.62,0.58,1.07,1.29,1.34,2.12
		c0.26,0.79-0.3,1.62-1.13,1.66l-0.55,0.03c-0.57,0.03-1.06-0.34-1.26-0.88c-0.14-0.37-0.33-0.68-0.59-0.92
		c-0.45-0.43-1.12-0.64-2.01-0.64c-0.87,0-1.49,0.17-1.87,0.51c-0.37,0.34-0.56,0.76-0.56,1.28c0,0.48,0.17,0.88,0.51,1.2
		c0.34,0.32,1.1,0.76,2.27,1.32c1.76,0.84,2.89,1.51,3.37,2.04c0.72,0.77,1.08,1.75,1.08,2.96c0,1.49-0.54,2.76-1.61,3.81
		c-1.07,1.05-2.56,1.58-4.47,1.58c-1.32,0-2.46-0.24-3.43-0.73c-0.97-0.49-1.65-1.16-2.05-2.03c-0.23-0.5-0.39-1.04-0.48-1.63
		C117.88,35.72,118.43,35.06,119.16,35.02z"/>
	<path class="st1" d="M132.72,33.94c0-1,0.14-2.05,0.41-3.15c0.36-1.48,0.9-2.76,1.63-3.85c0.73-1.09,1.65-1.95,2.76-2.58
		c1.11-0.63,2.37-0.95,3.79-0.95c1.9,0,3.43,0.65,4.6,1.94c1.17,1.3,1.75,3.01,1.75,5.15c0,1.78-0.38,3.5-1.14,5.16
		s-1.79,2.94-3.1,3.84c-1.3,0.9-2.78,1.35-4.43,1.35c-1.43,0-2.63-0.36-3.6-1.07c-0.97-0.71-1.66-1.6-2.06-2.65
		C132.92,36.08,132.72,35.01,132.72,33.94z M135.84,33.87c0,1.16,0.32,2.13,0.96,2.91c0.64,0.78,1.49,1.17,2.53,1.17
		c0.85,0,1.67-0.31,2.45-0.93c0.78-0.62,1.43-1.55,1.95-2.81c0.51-1.25,0.77-2.47,0.77-3.66c0-1.33-0.32-2.37-0.97-3.12
		s-1.48-1.13-2.48-1.13c-1.54,0-2.8,0.79-3.76,2.37C136.32,30.25,135.84,31.98,135.84,33.87z"/>
	<path class="st1" d="M148.64,39.06l2.74-14.35c0.11-0.59,0.63-1.02,1.23-1.02h8.18c0.79,0,1.38,0.72,1.23,1.49l-0.06,0.31
		c-0.11,0.59-0.63,1.02-1.23,1.02h-5.51c-0.6,0-1.12,0.43-1.23,1.02l-0.29,1.54c-0.15,0.77,0.44,1.49,1.23,1.49h4.4
		c0.79,0,1.38,0.71,1.23,1.49l-0.06,0.31c-0.11,0.59-0.63,1.02-1.23,1.02h-5.35c-0.6,0-1.12,0.43-1.23,1.02l-0.97,5.14
		c-0.11,0.59-0.63,1.02-1.23,1.02h-0.61C149.08,40.55,148.49,39.84,148.64,39.06z"/>
	<path class="st1" d="M167.12,40.55h-0.61c-0.79,0-1.38-0.72-1.23-1.49L167.4,28c0.15-0.77-0.44-1.49-1.23-1.49h-1.47
		c-0.79,0-1.38-0.71-1.23-1.49l0.06-0.31c0.11-0.59,0.63-1.02,1.23-1.02h9.54c0.79,0,1.38,0.71,1.23,1.49l-0.06,0.31
		c-0.11,0.59-0.63,1.02-1.23,1.02h-2.36c-0.6,0-1.12,0.43-1.23,1.02l-2.28,12C168.24,40.12,167.73,40.55,167.12,40.55z"/>
</g>
<g>
	<path class="st0" d="M82.01,48.65c1.73-0.49,4.49-0.75,7.13-0.75c2.22,0,4.97,0.3,6.99,1.7c1.96,1.29,3.16,3.4,3.16,6.3
		c0,3.65-1.5,6.32-3.62,8.05c-2.13,1.75-5.13,2.56-8.34,2.56c-0.87,0-1.61-0.12-2.06-0.15l-1.67,9.53h-6.3L82.01,48.65z
		 M86.23,60.66c0.45,0.09,0.99,0.19,1.92,0.19c2.83,0,4.66-2.02,4.66-4.31c0-2.38-1.6-3.06-3.36-3.06c-0.93,0-1.59,0.06-1.99,0.15
		L86.23,60.66z"/>
	<path class="st0" d="M136.78,59.32c0,5.14-1.63,9.92-4.52,12.98c-2.43,2.56-5.75,4.03-9.7,4.03c-6.62,0-10.64-5-10.64-11.7
		c0-5.07,1.68-9.89,4.65-12.96c2.46-2.55,5.78-4.04,9.63-4.04C132.86,47.63,136.78,52.37,136.78,59.32z M121.69,55.27
		c-1.84,2.01-2.89,6.05-2.89,9.19c0,3.64,1.53,6.03,4.7,6.03c1.35,0,2.6-0.65,3.57-1.71c1.83-1.99,2.82-6.34,2.82-9.28
		c0-3.27-1.14-6.02-4.46-6.02C123.99,53.48,122.71,54.16,121.69,55.27z"/>
	<path class="st0" d="M150.7,68.52c1.55,0.97,3.81,1.75,6.28,1.75c1.78,0.02,3.4-0.72,3.4-2.37c0-1.38-1.14-2.16-3.32-3.4
		c-2.47-1.43-5.37-3.59-5.37-7.46c0-5.9,4.75-9.39,10.66-9.39c3.38,0,5.19,0.7,6.39,1.33l-1.98,5.89c-0.84-0.48-2.75-1.24-4.88-1.17
		c-2.29,0-3.37,1-3.37,2.18c0,1.34,1.68,2.23,3.62,3.42c3.08,1.73,5.14,4.01,5.14,7.31c0,6.77-5.24,9.7-10.89,9.7
		c-3.97,0-6.53-1.08-7.79-2.01L150.7,68.52z"/>
</g>
</svg>
