<?xml version="1.0" encoding="utf-8"?>
<!-- Generator: Adobe Illustrator 26.0.1, SVG Export Plug-In . SVG Version: 6.00 Build 0)  -->
<svg version="1.1" id="Layer_1" xmlns="http://www.w3.org/2000/svg" xmlns:xlink="http://www.w3.org/1999/xlink" x="0px" y="0px"
	 viewBox="0 0 128 64" style="enable-background:new 0 0 128 64;" xml:space="preserve">
<style type="text/css">
	.st0{fill:#F8AA3D;}
	.st1{fill:#324C7E;stroke:#324C7E;stroke-width:0.75;stroke-miterlimit:10;}
	.st2{fill:#FFFFFF;}
	.st3{fill:#324C7E;}
</style>
<g>
	<path class="st0" d="M57.28,16.4c-0.19-1.4-1.44-2.34-2.81-2.36c-2.35-0.05-4.7,0-7.05,0h-10.5c-0.71,0-1.45-0.06-2.15,0.02
		c-1.08,0.12-2.39,0.75-2.91,1.76c-0.11,0.21-0.21,0.42-0.31,0.64c-1.37,2.83-2.73,5.65-4.1,8.48c-0.93,1.92-1.85,3.83-2.78,5.75
		c0-0.36,0-0.72,0-1.08c0-2.55,0.01-5.1,0.03-7.65c0.01-1.58,0.06-3.17,0.04-4.75c-0.02-1.55-1.34-2.68-2.85-2.7
		c-0.81-0.02-1.62,0-2.44,0h-3.71c-1.11,0-2.2-0.02-3.06,0.84c-0.36,0.36-0.61,0.81-0.72,1.3c-0.22,0.97,1.26,1.38,1.49,0.41
		c0.14-0.62,0.66-0.99,1.3-1.01c0.24,0,0.49,0,0.73,0h3.45c0.94,0,1.88,0,2.82,0c0.73,0,1.43,0.39,1.44,1.17
		c0.03,3.94-0.08,7.89-0.07,11.84c0,1.54-0.08,3.13,0.07,4.67c0.06,0.58,0.54,1.17,1.19,0.79c0.18-0.11,0.26-0.24,0.35-0.41
		c0.24-0.46,0.45-0.93,0.68-1.4c2-4.13,3.99-8.25,5.99-12.38c0.59-1.22,1.16-2.46,1.78-3.67c0.3-0.6,1.25-1.04,1.9-1.05
		c0.44-0.01,0.87,0,1.31,0h13.59c1.46,0,2.92,0,4.37,0c0.79,0,1.52,0.51,1.41,1.32c-0.03,0.2-0.08,0.4-0.12,0.59
		c-0.69,3.38-1.38,6.75-2.06,10.13c-0.18,0.87-0.35,1.73-0.53,2.6c0.56,0.37,0.98,0.87,1.28,1.45l0.68-3.35l1.79-8.76
		c0.14-0.68,0.28-1.37,0.42-2.05C57.28,17.14,57.33,16.78,57.28,16.4z"/>
	<path class="st0" d="M23.39,33.33c0,0,0,0.01-0.01,0.01C23.32,33.49,23.3,33.43,23.39,33.33z"/>
	<path class="st0" d="M50.83,41.08c-0.08,0.38-0.15,0.75-0.23,1.13c-0.59,2.9-1.17,5.81-1.78,8.71c-0.14,0.67-0.59,1.13-1.32,1.15
		c-0.99,0.02-1,1.57,0,1.54c1.29-0.03,2.48-0.85,2.78-2.15c0.03-0.13,0.06-0.27,0.08-0.41c0.16-0.79,0.32-1.58,0.48-2.38
		c0.54-2.65,1.08-5.3,1.62-7.94C52,40.95,51.45,41.07,50.83,41.08z"/>
</g>
<path class="st1" d="M22.75,56.85h-4.3c-0.81,0-1.48-0.64-1.52-1.46l-0.63-15.99c-0.07-1.82-2.7-1.99-3.01-0.2l-2.84,16.38
	c-0.13,0.73-0.76,1.26-1.5,1.26H5.65c-0.95,0-1.67-0.87-1.49-1.8l6.65-35c0.14-0.72,0.76-1.23,1.49-1.23h6.57
	c0.8,0,1.46,0.62,1.51,1.41l1.34,19.48c0.11,1.58,2.26,1.96,2.9,0.51l9.03-20.5c0.24-0.55,0.79-0.91,1.39-0.91h16.51
	c0.95,0,1.67,0.87,1.49,1.8l-6.67,35c-0.14,0.72-0.76,1.23-1.49,1.23H32.47c-0.97,0-1.69-0.89-1.48-1.84l3.16-14.61
	c0.39-1.79-2.15-2.61-2.88-0.92l-7.13,16.46C23.9,56.49,23.35,56.85,22.75,56.85z"/>
<path class="st1" d="M82.06,26.23"/>
<circle class="st2" cx="16.47" cy="22.21" r="2.24"/>
<circle class="st2" cx="36.84" cy="22.81" r="2.24"/>
<g>
	<path class="st3" d="M17.24,22.3c0.02-5.25,2.65-10.99,7.52-13.41c0.96-0.48,2.08-0.8,3.12-0.85c0.54-0.03,1.06,0,1.51,0.09
		c0.53,0.11,0.96,0.26,1.37,0.47c1.87,0.96,3.07,2.9,3.83,4.91c1.13,3,1.48,6.26,1.49,9.45c0,0.99,1.55,1,1.54,0
		c-0.01-3.1-0.33-6.27-1.31-9.22c-0.79-2.38-2.07-4.76-4.23-6.16c-2.09-1.35-4.76-1.35-7.04-0.47c-2.61,1-4.74,2.95-6.3,5.24
		c-1.99,2.92-3.02,6.45-3.04,9.97C15.69,23.3,17.24,23.3,17.24,22.3L17.24,22.3z"/>
</g>
<g>
	<path class="st2" d="M50.93,39.09H39.29c-1.25,0-2.26-1.01-2.26-2.26v-3.27c0-1.25,1.01-2.26,2.26-2.26h11.64
		c1.25,0,2.26,1.01,2.26,2.26v3.27C53.2,38.08,52.18,39.09,50.93,39.09z"/>
	<path class="st3" d="M50.8,39.56H39.64c-1.72,0-3.12-1.4-3.12-3.12v-2.48c0-1.72,1.4-3.12,3.12-3.12H50.8
		c1.72,0,3.12,1.4,3.12,3.12v2.48C53.92,38.16,52.52,39.56,50.8,39.56z M39.64,31.76c-1.21,0-2.19,0.98-2.19,2.19v2.48
		c0,1.21,0.98,2.19,2.19,2.19H50.8c1.21,0,2.19-0.98,2.19-2.19v-2.48c0-1.21-0.98-2.19-2.19-2.19H39.64z"/>
</g>
<circle class="st0" cx="41.27" cy="35.37" r="2.06"/>
<g>
	<path class="st3" d="M66.24,29.89h-0.7c-0.49,0-0.89-0.38-0.91-0.87l-0.16-4.1c-0.03-0.66-0.98-0.72-1.09-0.07l-0.74,4.29
		c-0.08,0.43-0.45,0.75-0.89,0.75h-0.2c-0.57,0-1-0.52-0.89-1.07l1.97-10.38c0.08-0.43,0.45-0.74,0.89-0.74h1.63
		c0.49,0,0.89,0.38,0.91,0.87l0.15,3.77c0.04,0.96,1.34,1.21,1.73,0.33l1.97-4.44c0.15-0.33,0.47-0.54,0.83-0.54h1.61
		c0.57,0,1,0.52,0.89,1.08l-1.98,10.38c-0.08,0.43-0.45,0.74-0.89,0.74h-0.21c-0.58,0-1.01-0.53-0.89-1.1l0.83-3.85
		c0.13-0.61-0.73-0.89-0.98-0.32l-2.04,4.72C66.93,29.68,66.6,29.89,66.24,29.89z"/>
	<path class="st3" d="M79.83,27.2h-3.04c-0.34,0-0.66,0.2-0.81,0.5l-0.83,1.68c-0.15,0.31-0.47,0.5-0.81,0.5h-0.3
		c-0.68,0-1.12-0.72-0.81-1.32l5.34-10.38c0.16-0.3,0.47-0.49,0.81-0.49h1.2c0.45,0,0.83,0.33,0.9,0.77L83,28.85
		c0.08,0.55-0.34,1.04-0.9,1.04h-0.32c-0.45,0-0.84-0.33-0.9-0.78l-0.16-1.13C80.67,27.53,80.29,27.2,79.83,27.2z M80.21,24.14
		l-0.15-1.13c-0.11-0.87-1.27-1.09-1.69-0.32l-0.61,1.13c-0.33,0.6,0.11,1.34,0.8,1.34h0.76C79.86,25.17,80.28,24.69,80.21,24.14z"
		/>
	<path class="st3" d="M85.8,25.89l0.4-0.02c0.45-0.03,0.86,0.28,0.94,0.73c0.06,0.34,0.15,0.6,0.28,0.76
		c0.33,0.43,0.95,0.65,1.85,0.65c0.75,0,1.29-0.15,1.62-0.44c0.33-0.29,0.5-0.65,0.5-1.06c0-0.36-0.14-0.67-0.41-0.91
		c-0.19-0.18-0.72-0.48-1.58-0.89c-0.86-0.41-1.49-0.75-1.88-1.03s-0.71-0.63-0.93-1.07c-0.23-0.44-0.34-0.95-0.34-1.54
		c0-1.03,0.34-1.88,1.01-2.55c0.68-0.68,1.65-1.01,2.93-1.01c1.3,0,2.31,0.34,3.02,1.01c0.45,0.42,0.77,0.93,0.96,1.53
		c0.19,0.57-0.21,1.17-0.82,1.2l-0.4,0.02c-0.41,0.02-0.77-0.25-0.91-0.63c-0.1-0.27-0.24-0.49-0.43-0.67
		c-0.33-0.31-0.81-0.47-1.45-0.47c-0.63,0-1.08,0.12-1.35,0.37c-0.27,0.24-0.4,0.55-0.4,0.92c0,0.35,0.12,0.64,0.37,0.86
		c0.25,0.23,0.79,0.55,1.64,0.96c1.28,0.6,2.09,1.09,2.44,1.47c0.52,0.55,0.78,1.27,0.78,2.14c0,1.08-0.39,1.99-1.16,2.76
		c-0.77,0.76-1.85,1.14-3.23,1.14c-0.95,0-1.78-0.18-2.48-0.53c-0.7-0.35-1.19-0.84-1.48-1.47c-0.17-0.36-0.28-0.75-0.34-1.18
		C84.88,26.4,85.27,25.92,85.8,25.89z"/>
	<path class="st3" d="M95.6,25.11c0-0.72,0.1-1.48,0.29-2.28c0.26-1.07,0.65-2,1.18-2.78c0.53-0.79,1.19-1.41,1.99-1.87
		c0.8-0.46,1.71-0.69,2.74-0.69c1.37,0,2.48,0.47,3.32,1.4c0.84,0.94,1.27,2.18,1.27,3.72c0,1.29-0.27,2.53-0.82,3.73
		c-0.55,1.2-1.3,2.13-2.24,2.78c-0.94,0.65-2.01,0.97-3.2,0.97c-1.03,0-1.9-0.26-2.6-0.77c-0.7-0.52-1.2-1.15-1.49-1.92
		C95.75,26.65,95.6,25.89,95.6,25.11z M97.85,25.06c0,0.84,0.23,1.54,0.7,2.1c0.46,0.57,1.07,0.85,1.83,0.85
		c0.62,0,1.21-0.22,1.77-0.67c0.57-0.45,1.04-1.12,1.41-2.03c0.37-0.91,0.56-1.79,0.56-2.65c0-0.96-0.23-1.71-0.7-2.26
		c-0.47-0.55-1.07-0.82-1.79-0.82c-1.11,0-2.02,0.57-2.72,1.71C98.2,22.44,97.85,23.7,97.85,25.06z"/>
	<path class="st3" d="M107.11,28.81l1.98-10.38c0.08-0.43,0.45-0.74,0.89-0.74h5.91c0.57,0,1,0.52,0.89,1.08L116.73,19
		c-0.08,0.43-0.46,0.73-0.89,0.73h-3.98c-0.43,0-0.81,0.31-0.89,0.74l-0.21,1.11c-0.11,0.56,0.32,1.08,0.89,1.08h3.18
		c0.57,0,1,0.52,0.89,1.07l-0.04,0.23c-0.08,0.43-0.45,0.74-0.89,0.74h-3.87c-0.44,0-0.81,0.31-0.89,0.74l-0.7,3.71
		c-0.08,0.43-0.45,0.74-0.89,0.74H108C107.43,29.89,107,29.37,107.11,28.81z"/>
	<path class="st3" d="M120.47,29.89h-0.44c-0.57,0-1-0.52-0.89-1.08l1.53-8c0.11-0.56-0.32-1.08-0.89-1.08h-1.06
		c-0.57,0-1-0.52-0.89-1.07l0.04-0.23c0.08-0.43,0.45-0.74,0.89-0.74h6.89c0.57,0,1,0.52,0.89,1.07L126.5,19
		c-0.08,0.43-0.45,0.74-0.89,0.74h-1.71c-0.44,0-0.81,0.31-0.89,0.74l-1.65,8.68C121.28,29.58,120.9,29.89,120.47,29.89z"/>
</g>
<g>
	<path class="st0" d="M58.95,35.75c1.25-0.35,3.25-0.54,5.15-0.54c1.61,0,3.59,0.22,5.05,1.23c1.41,0.93,2.28,2.46,2.28,4.56
		c0,2.64-1.08,4.57-2.62,5.82c-1.54,1.27-3.71,1.85-6.03,1.85c-0.63,0-1.16-0.09-1.49-0.11l-1.21,6.89h-4.55L58.95,35.75z M62,44.42
		c0.33,0.07,0.72,0.13,1.39,0.13c2.04,0,3.37-1.46,3.37-3.12c0-1.72-1.16-2.21-2.43-2.21c-0.67,0-1.15,0.05-1.44,0.11L62,44.42z"/>
	<path class="st0" d="M98.54,43.46c0,3.71-1.18,7.17-3.27,9.38c-1.76,1.85-4.16,2.92-7.01,2.92c-4.79,0-7.69-3.62-7.69-8.46
		c0-3.67,1.22-7.15,3.36-9.37c1.78-1.84,4.18-2.92,6.96-2.92C95.71,35.01,98.54,38.43,98.54,43.46z M87.63,40.53
		c-1.33,1.45-2.09,4.38-2.09,6.64c0,2.63,1.1,4.36,3.4,4.36c0.98,0,1.88-0.47,2.58-1.24c1.32-1.44,2.04-4.58,2.04-6.71
		c0-2.36-0.82-4.35-3.22-4.35C89.29,39.23,88.36,39.73,87.63,40.53z"/>
	<path class="st0" d="M108.6,50.11c1.12,0.7,2.75,1.27,4.54,1.27c1.29,0.02,2.45-0.52,2.45-1.71c0-1-0.82-1.56-2.4-2.46
		c-1.78-1.03-3.88-2.59-3.88-5.39c0-4.26,3.43-6.79,7.7-6.79c2.44,0,3.75,0.51,4.62,0.96l-1.43,4.26c-0.61-0.34-1.99-0.9-3.53-0.85
		c-1.65,0-2.44,0.72-2.44,1.58c0,0.97,1.22,1.61,2.62,2.47c2.23,1.25,3.71,2.9,3.71,5.28c0,4.9-3.79,7.01-7.87,7.01
		c-2.87,0-4.72-0.78-5.63-1.45L108.6,50.11z"/>
</g>
</svg>
